<?xml version="1.0" standalone="no"?>
<!DOCTYPE svg PUBLIC "-//W3C//DTD SVG 20010904//EN"
 "http://www.w3.org/TR/2001/REC-SVG-20010904/DTD/svg10.dtd">
<svg version="1.0" xmlns="http://www.w3.org/2000/svg"
 width="454.000000pt" height="454.000000pt" viewBox="0 0 454.000000 454.000000"
 preserveAspectRatio="xMidYMid meet">

<g transform="translate(0.000000,454.000000) scale(0.100000,-0.100000)"
fill="#000000" stroke="none">
<path d="M1835 4499 c-217 -21 -385 -64 -541 -138 -207 -99 -344 -209 -690
-555 -342 -343 -447 -480 -515 -680 -50 -143 -59 -242 -59 -626 0 -380 10
-566 41 -740 37 -214 121 -417 231 -565 47 -63 493 -526 701 -729 161 -156
291 -236 507 -311 451 -156 839 -169 1263 -45 161 47 382 135 495 197 338 184
651 477 846 793 142 229 309 635 372 906 25 107 28 137 28 294 0 140 -5 195
-22 275 -71 329 -210 681 -358 909 -241 367 -500 596 -889 787 -253 124 -509
199 -777 228 -113 13 -502 12 -633 0z m1115 -1569 l94 -641 -93 -632 c-51
-348 -95 -634 -97 -636 -2 -2 -105 12 -230 30 -148 22 -228 38 -231 47 -3 7
24 213 61 459 36 246 65 447 63 448 -1 1 -173 -130 -382 -292 -209 -161 -432
-334 -496 -383 l-117 -89 -136 179 c-75 99 -139 186 -142 193 -3 9 140 125
421 342 234 180 428 331 430 335 3 5 -188 156 -425 337 -236 180 -430 332
-430 336 0 9 267 364 280 372 4 2 229 -167 500 -376 271 -209 494 -378 496
-376 2 1 -26 198 -61 437 -36 239 -65 445 -65 456 0 20 10 23 118 39 96 14
321 50 343 54 3 1 47 -287 99 -639z"/>
</g>
</svg>
